%TF.GenerationSoftware,KiCad,Pcbnew,8.0.1*%
%TF.CreationDate,2024-03-26T23:53:37-06:00*%
%TF.ProjectId,Led_Board,4c65645f-426f-4617-9264-2e6b69636164,rev?*%
%TF.SameCoordinates,Original*%
%TF.FileFunction,Legend,Top*%
%TF.FilePolarity,Positive*%
%FSLAX46Y46*%
G04 Gerber Fmt 4.6, Leading zero omitted, Abs format (unit mm)*
G04 Created by KiCad (PCBNEW 8.0.1) date 2024-03-26 23:53:37*
%MOMM*%
%LPD*%
G01*
G04 APERTURE LIST*
%ADD10C,0.100000*%
%ADD11C,0.152400*%
G04 APERTURE END LIST*
D10*
X146534315Y-75780638D02*
X146248601Y-75780638D01*
X146248601Y-75780638D02*
X146248601Y-75180638D01*
X146734315Y-75466352D02*
X146934315Y-75466352D01*
X147020029Y-75780638D02*
X146734315Y-75780638D01*
X146734315Y-75780638D02*
X146734315Y-75180638D01*
X146734315Y-75180638D02*
X147020029Y-75180638D01*
X147277172Y-75780638D02*
X147277172Y-75180638D01*
X147277172Y-75180638D02*
X147420029Y-75180638D01*
X147420029Y-75180638D02*
X147505743Y-75209209D01*
X147505743Y-75209209D02*
X147562886Y-75266352D01*
X147562886Y-75266352D02*
X147591457Y-75323495D01*
X147591457Y-75323495D02*
X147620029Y-75437781D01*
X147620029Y-75437781D02*
X147620029Y-75523495D01*
X147620029Y-75523495D02*
X147591457Y-75637781D01*
X147591457Y-75637781D02*
X147562886Y-75694924D01*
X147562886Y-75694924D02*
X147505743Y-75752067D01*
X147505743Y-75752067D02*
X147420029Y-75780638D01*
X147420029Y-75780638D02*
X147277172Y-75780638D01*
X148191457Y-75780638D02*
X147848600Y-75780638D01*
X148020029Y-75780638D02*
X148020029Y-75180638D01*
X148020029Y-75180638D02*
X147962886Y-75266352D01*
X147962886Y-75266352D02*
X147905743Y-75323495D01*
X147905743Y-75323495D02*
X147848600Y-75352067D01*
X148762886Y-75780638D02*
X148420029Y-75780638D01*
X148591458Y-75780638D02*
X148591458Y-75180638D01*
X148591458Y-75180638D02*
X148534315Y-75266352D01*
X148534315Y-75266352D02*
X148477172Y-75323495D01*
X148477172Y-75323495D02*
X148420029Y-75352067D01*
X151458658Y-77699501D02*
X151315800Y-77452066D01*
X151315800Y-77452066D02*
X151835416Y-77152066D01*
X151830837Y-77715563D02*
X151930837Y-77888768D01*
X151701515Y-78120142D02*
X151558657Y-77872706D01*
X151558657Y-77872706D02*
X152078273Y-77572706D01*
X152078273Y-77572706D02*
X152221130Y-77820142D01*
X151830086Y-78342834D02*
X152349701Y-78042834D01*
X152349701Y-78042834D02*
X152421130Y-78166552D01*
X152421130Y-78166552D02*
X152439243Y-78255069D01*
X152439243Y-78255069D02*
X152418328Y-78333127D01*
X152418328Y-78333127D02*
X152383126Y-78386442D01*
X152383126Y-78386442D02*
X152298438Y-78468329D01*
X152298438Y-78468329D02*
X152224207Y-78511186D01*
X152224207Y-78511186D02*
X152110947Y-78543585D01*
X152110947Y-78543585D02*
X152047174Y-78547413D01*
X152047174Y-78547413D02*
X151969115Y-78526497D01*
X151969115Y-78526497D02*
X151901515Y-78466552D01*
X151901515Y-78466552D02*
X151830086Y-78342834D01*
X152287229Y-79134629D02*
X152115800Y-78837706D01*
X152201515Y-78986167D02*
X152721130Y-78686167D01*
X152721130Y-78686167D02*
X152618328Y-78679537D01*
X152618328Y-78679537D02*
X152540269Y-78658622D01*
X152540269Y-78658622D02*
X152486954Y-78623420D01*
X152992559Y-79156296D02*
X153021130Y-79205783D01*
X153021130Y-79205783D02*
X153024958Y-79269556D01*
X153024958Y-79269556D02*
X153014500Y-79308585D01*
X153014500Y-79308585D02*
X152979299Y-79361900D01*
X152979299Y-79361900D02*
X152894610Y-79443787D01*
X152894610Y-79443787D02*
X152770892Y-79515215D01*
X152770892Y-79515215D02*
X152657632Y-79547614D01*
X152657632Y-79547614D02*
X152593859Y-79551442D01*
X152593859Y-79551442D02*
X152554830Y-79540984D01*
X152554830Y-79540984D02*
X152501515Y-79505783D01*
X152501515Y-79505783D02*
X152472943Y-79456296D01*
X152472943Y-79456296D02*
X152469116Y-79392523D01*
X152469116Y-79392523D02*
X152479573Y-79353494D01*
X152479573Y-79353494D02*
X152514775Y-79300179D01*
X152514775Y-79300179D02*
X152599463Y-79218292D01*
X152599463Y-79218292D02*
X152723181Y-79146864D01*
X152723181Y-79146864D02*
X152836441Y-79114464D01*
X152836441Y-79114464D02*
X152900214Y-79110637D01*
X152900214Y-79110637D02*
X152939244Y-79121094D01*
X152939244Y-79121094D02*
X152992559Y-79156296D01*
X152374762Y-83396742D02*
X152517619Y-83149306D01*
X152517619Y-83149306D02*
X153037235Y-83449306D01*
X152546942Y-83727089D02*
X152446942Y-83900294D01*
X152131905Y-83817382D02*
X152274762Y-83569946D01*
X152274762Y-83569946D02*
X152794378Y-83869946D01*
X152794378Y-83869946D02*
X152651520Y-84117382D01*
X152003334Y-84040074D02*
X152522949Y-84340074D01*
X152522949Y-84340074D02*
X152451521Y-84463792D01*
X152451521Y-84463792D02*
X152383920Y-84523737D01*
X152383920Y-84523737D02*
X152305861Y-84544653D01*
X152305861Y-84544653D02*
X152242088Y-84540825D01*
X152242088Y-84540825D02*
X152128828Y-84508426D01*
X152128828Y-84508426D02*
X152054598Y-84465569D01*
X152054598Y-84465569D02*
X151969909Y-84383682D01*
X151969909Y-84383682D02*
X151934707Y-84330367D01*
X151934707Y-84330367D02*
X151913792Y-84252309D01*
X151913792Y-84252309D02*
X151931905Y-84163792D01*
X151931905Y-84163792D02*
X152003334Y-84040074D01*
X151689048Y-84584433D02*
X151631905Y-84683408D01*
X151631905Y-84683408D02*
X151628077Y-84747180D01*
X151628077Y-84747180D02*
X151638535Y-84786210D01*
X151638535Y-84786210D02*
X151684195Y-84878554D01*
X151684195Y-84878554D02*
X151768883Y-84960440D01*
X151768883Y-84960440D02*
X151966832Y-85074726D01*
X151966832Y-85074726D02*
X152030605Y-85078554D01*
X152030605Y-85078554D02*
X152069634Y-85068096D01*
X152069634Y-85068096D02*
X152122949Y-85032895D01*
X152122949Y-85032895D02*
X152180092Y-84933920D01*
X152180092Y-84933920D02*
X152183920Y-84870147D01*
X152183920Y-84870147D02*
X152173462Y-84831118D01*
X152173462Y-84831118D02*
X152138260Y-84777803D01*
X152138260Y-84777803D02*
X152014543Y-84706375D01*
X152014543Y-84706375D02*
X151950770Y-84702547D01*
X151950770Y-84702547D02*
X151911740Y-84713005D01*
X151911740Y-84713005D02*
X151858425Y-84748206D01*
X151858425Y-84748206D02*
X151801283Y-84847180D01*
X151801283Y-84847180D02*
X151797455Y-84910953D01*
X151797455Y-84910953D02*
X151807913Y-84949983D01*
X151807913Y-84949983D02*
X151843114Y-85003298D01*
X147991428Y-86922648D02*
X148277142Y-86922648D01*
X148277142Y-86922648D02*
X148277142Y-87522648D01*
X147791428Y-87236934D02*
X147591428Y-87236934D01*
X147505714Y-86922648D02*
X147791428Y-86922648D01*
X147791428Y-86922648D02*
X147791428Y-87522648D01*
X147791428Y-87522648D02*
X147505714Y-87522648D01*
X147248571Y-86922648D02*
X147248571Y-87522648D01*
X147248571Y-87522648D02*
X147105714Y-87522648D01*
X147105714Y-87522648D02*
X147020000Y-87494077D01*
X147020000Y-87494077D02*
X146962857Y-87436934D01*
X146962857Y-87436934D02*
X146934286Y-87379791D01*
X146934286Y-87379791D02*
X146905714Y-87265505D01*
X146905714Y-87265505D02*
X146905714Y-87179791D01*
X146905714Y-87179791D02*
X146934286Y-87065505D01*
X146934286Y-87065505D02*
X146962857Y-87008362D01*
X146962857Y-87008362D02*
X147020000Y-86951220D01*
X147020000Y-86951220D02*
X147105714Y-86922648D01*
X147105714Y-86922648D02*
X147248571Y-86922648D01*
X146562857Y-87265505D02*
X146620000Y-87294077D01*
X146620000Y-87294077D02*
X146648571Y-87322648D01*
X146648571Y-87322648D02*
X146677143Y-87379791D01*
X146677143Y-87379791D02*
X146677143Y-87408362D01*
X146677143Y-87408362D02*
X146648571Y-87465505D01*
X146648571Y-87465505D02*
X146620000Y-87494077D01*
X146620000Y-87494077D02*
X146562857Y-87522648D01*
X146562857Y-87522648D02*
X146448571Y-87522648D01*
X146448571Y-87522648D02*
X146391429Y-87494077D01*
X146391429Y-87494077D02*
X146362857Y-87465505D01*
X146362857Y-87465505D02*
X146334286Y-87408362D01*
X146334286Y-87408362D02*
X146334286Y-87379791D01*
X146334286Y-87379791D02*
X146362857Y-87322648D01*
X146362857Y-87322648D02*
X146391429Y-87294077D01*
X146391429Y-87294077D02*
X146448571Y-87265505D01*
X146448571Y-87265505D02*
X146562857Y-87265505D01*
X146562857Y-87265505D02*
X146620000Y-87236934D01*
X146620000Y-87236934D02*
X146648571Y-87208362D01*
X146648571Y-87208362D02*
X146677143Y-87151220D01*
X146677143Y-87151220D02*
X146677143Y-87036934D01*
X146677143Y-87036934D02*
X146648571Y-86979791D01*
X146648571Y-86979791D02*
X146620000Y-86951220D01*
X146620000Y-86951220D02*
X146562857Y-86922648D01*
X146562857Y-86922648D02*
X146448571Y-86922648D01*
X146448571Y-86922648D02*
X146391429Y-86951220D01*
X146391429Y-86951220D02*
X146362857Y-86979791D01*
X146362857Y-86979791D02*
X146334286Y-87036934D01*
X146334286Y-87036934D02*
X146334286Y-87151220D01*
X146334286Y-87151220D02*
X146362857Y-87208362D01*
X146362857Y-87208362D02*
X146391429Y-87236934D01*
X146391429Y-87236934D02*
X146448571Y-87265505D01*
X142890123Y-84366045D02*
X143032981Y-84613481D01*
X143032981Y-84613481D02*
X142513365Y-84913481D01*
X142517944Y-84349983D02*
X142417944Y-84176778D01*
X142647266Y-83945404D02*
X142790124Y-84192840D01*
X142790124Y-84192840D02*
X142270508Y-84492840D01*
X142270508Y-84492840D02*
X142127651Y-84245404D01*
X142518695Y-83722712D02*
X141999080Y-84022712D01*
X141999080Y-84022712D02*
X141927651Y-83898994D01*
X141927651Y-83898994D02*
X141909538Y-83810478D01*
X141909538Y-83810478D02*
X141930453Y-83732419D01*
X141930453Y-83732419D02*
X141965655Y-83679104D01*
X141965655Y-83679104D02*
X142050343Y-83597218D01*
X142050343Y-83597218D02*
X142124574Y-83554361D01*
X142124574Y-83554361D02*
X142237834Y-83521961D01*
X142237834Y-83521961D02*
X142301607Y-83518134D01*
X142301607Y-83518134D02*
X142379666Y-83539049D01*
X142379666Y-83539049D02*
X142447266Y-83598994D01*
X142447266Y-83598994D02*
X142518695Y-83722712D01*
X141727651Y-83552584D02*
X141527651Y-83206174D01*
X141527651Y-83206174D02*
X142175838Y-83128866D01*
X142167420Y-79188315D02*
X142024563Y-79435751D01*
X142024563Y-79435751D02*
X141504947Y-79135751D01*
X141995240Y-78857967D02*
X142095240Y-78684762D01*
X142410277Y-78767674D02*
X142267420Y-79015110D01*
X142267420Y-79015110D02*
X141747804Y-78715110D01*
X141747804Y-78715110D02*
X141890662Y-78467674D01*
X142538848Y-78544982D02*
X142019233Y-78244982D01*
X142019233Y-78244982D02*
X142090661Y-78121264D01*
X142090661Y-78121264D02*
X142158262Y-78061319D01*
X142158262Y-78061319D02*
X142236321Y-78040404D01*
X142236321Y-78040404D02*
X142300094Y-78044231D01*
X142300094Y-78044231D02*
X142413354Y-78076631D01*
X142413354Y-78076631D02*
X142487584Y-78119488D01*
X142487584Y-78119488D02*
X142572273Y-78201374D01*
X142572273Y-78201374D02*
X142607475Y-78254689D01*
X142607475Y-78254689D02*
X142628390Y-78332748D01*
X142628390Y-78332748D02*
X142610277Y-78421264D01*
X142610277Y-78421264D02*
X142538848Y-78544982D01*
X142995991Y-77753188D02*
X142824562Y-78050111D01*
X142910277Y-77901649D02*
X142390661Y-77601649D01*
X142390661Y-77601649D02*
X142436321Y-77693993D01*
X142436321Y-77693993D02*
X142457237Y-77772052D01*
X142457237Y-77772052D02*
X142453409Y-77835825D01*
X142640149Y-77283810D02*
X142629691Y-77244781D01*
X142629691Y-77244781D02*
X142633519Y-77181008D01*
X142633519Y-77181008D02*
X142704947Y-77057290D01*
X142704947Y-77057290D02*
X142758262Y-77022088D01*
X142758262Y-77022088D02*
X142797292Y-77011631D01*
X142797292Y-77011631D02*
X142861065Y-77015458D01*
X142861065Y-77015458D02*
X142910552Y-77044030D01*
X142910552Y-77044030D02*
X142970497Y-77111631D01*
X142970497Y-77111631D02*
X143095991Y-77579982D01*
X143095991Y-77579982D02*
X143281706Y-77258316D01*
X150037857Y-84155942D02*
X149980715Y-84127371D01*
X149980715Y-84127371D02*
X149895000Y-84127371D01*
X149895000Y-84127371D02*
X149809286Y-84155942D01*
X149809286Y-84155942D02*
X149752143Y-84213085D01*
X149752143Y-84213085D02*
X149723572Y-84270228D01*
X149723572Y-84270228D02*
X149695000Y-84384514D01*
X149695000Y-84384514D02*
X149695000Y-84470228D01*
X149695000Y-84470228D02*
X149723572Y-84584514D01*
X149723572Y-84584514D02*
X149752143Y-84641657D01*
X149752143Y-84641657D02*
X149809286Y-84698800D01*
X149809286Y-84698800D02*
X149895000Y-84727371D01*
X149895000Y-84727371D02*
X149952143Y-84727371D01*
X149952143Y-84727371D02*
X150037857Y-84698800D01*
X150037857Y-84698800D02*
X150066429Y-84670228D01*
X150066429Y-84670228D02*
X150066429Y-84470228D01*
X150066429Y-84470228D02*
X149952143Y-84470228D01*
X150323572Y-84727371D02*
X150323572Y-84127371D01*
X150323572Y-84127371D02*
X150666429Y-84727371D01*
X150666429Y-84727371D02*
X150666429Y-84127371D01*
X150952143Y-84727371D02*
X150952143Y-84127371D01*
X150952143Y-84127371D02*
X151095000Y-84127371D01*
X151095000Y-84127371D02*
X151180714Y-84155942D01*
X151180714Y-84155942D02*
X151237857Y-84213085D01*
X151237857Y-84213085D02*
X151266428Y-84270228D01*
X151266428Y-84270228D02*
X151295000Y-84384514D01*
X151295000Y-84384514D02*
X151295000Y-84470228D01*
X151295000Y-84470228D02*
X151266428Y-84584514D01*
X151266428Y-84584514D02*
X151237857Y-84641657D01*
X151237857Y-84641657D02*
X151180714Y-84698800D01*
X151180714Y-84698800D02*
X151095000Y-84727371D01*
X151095000Y-84727371D02*
X150952143Y-84727371D01*
X146779826Y-76610277D02*
X147065541Y-76610277D01*
X146722683Y-76781706D02*
X146922683Y-76181706D01*
X146922683Y-76181706D02*
X147122683Y-76781706D01*
X147608398Y-76781706D02*
X147322684Y-76781706D01*
X147322684Y-76781706D02*
X147322684Y-76181706D01*
X148094112Y-76781706D02*
X147808398Y-76781706D01*
X147808398Y-76781706D02*
X147808398Y-76181706D01*
X148316904Y-85892588D02*
X148316904Y-85292588D01*
X148316904Y-85578302D02*
X148659761Y-85578302D01*
X148659761Y-85892588D02*
X148659761Y-85292588D01*
X148916903Y-85721159D02*
X149202618Y-85721159D01*
X148859760Y-85892588D02*
X149059760Y-85292588D01*
X149059760Y-85292588D02*
X149259760Y-85892588D01*
X149745475Y-85892588D02*
X149459761Y-85892588D01*
X149459761Y-85892588D02*
X149459761Y-85292588D01*
X150145475Y-85578302D02*
X149945475Y-85578302D01*
X149945475Y-85892588D02*
X149945475Y-85292588D01*
X149945475Y-85292588D02*
X150231189Y-85292588D01*
X139243303Y-81208634D02*
X139271875Y-81237206D01*
X139271875Y-81237206D02*
X139300446Y-81322920D01*
X139300446Y-81322920D02*
X139300446Y-81380063D01*
X139300446Y-81380063D02*
X139271875Y-81465777D01*
X139271875Y-81465777D02*
X139214732Y-81522920D01*
X139214732Y-81522920D02*
X139157589Y-81551491D01*
X139157589Y-81551491D02*
X139043303Y-81580063D01*
X139043303Y-81580063D02*
X138957589Y-81580063D01*
X138957589Y-81580063D02*
X138843303Y-81551491D01*
X138843303Y-81551491D02*
X138786160Y-81522920D01*
X138786160Y-81522920D02*
X138729017Y-81465777D01*
X138729017Y-81465777D02*
X138700446Y-81380063D01*
X138700446Y-81380063D02*
X138700446Y-81322920D01*
X138700446Y-81322920D02*
X138729017Y-81237206D01*
X138729017Y-81237206D02*
X138757589Y-81208634D01*
X139300446Y-80637206D02*
X139300446Y-80980063D01*
X139300446Y-80808634D02*
X138700446Y-80808634D01*
X138700446Y-80808634D02*
X138786160Y-80865777D01*
X138786160Y-80865777D02*
X138843303Y-80922920D01*
X138843303Y-80922920D02*
X138871875Y-80980063D01*
X143814374Y-87400739D02*
X143853403Y-87390281D01*
X143853403Y-87390281D02*
X143941920Y-87408395D01*
X143941920Y-87408395D02*
X143991407Y-87436966D01*
X143991407Y-87436966D02*
X144051352Y-87504567D01*
X144051352Y-87504567D02*
X144072268Y-87582625D01*
X144072268Y-87582625D02*
X144068440Y-87646398D01*
X144068440Y-87646398D02*
X144036041Y-87759658D01*
X144036041Y-87759658D02*
X143993184Y-87833889D01*
X143993184Y-87833889D02*
X143911297Y-87918578D01*
X143911297Y-87918578D02*
X143857982Y-87953779D01*
X143857982Y-87953779D02*
X143779923Y-87974695D01*
X143779923Y-87974695D02*
X143691407Y-87956581D01*
X143691407Y-87956581D02*
X143641920Y-87928010D01*
X143641920Y-87928010D02*
X143581975Y-87860409D01*
X143581975Y-87860409D02*
X143571517Y-87821380D01*
X143373568Y-87707094D02*
X143334539Y-87717552D01*
X143334539Y-87717552D02*
X143270766Y-87713724D01*
X143270766Y-87713724D02*
X143147048Y-87642296D01*
X143147048Y-87642296D02*
X143111847Y-87588981D01*
X143111847Y-87588981D02*
X143101389Y-87549951D01*
X143101389Y-87549951D02*
X143105217Y-87486178D01*
X143105217Y-87486178D02*
X143133788Y-87436691D01*
X143133788Y-87436691D02*
X143201389Y-87376746D01*
X143201389Y-87376746D02*
X143669740Y-87251252D01*
X143669740Y-87251252D02*
X143348074Y-87065537D01*
X143083711Y-74412342D02*
X143073254Y-74451371D01*
X143073254Y-74451371D02*
X143013309Y-74518972D01*
X143013309Y-74518972D02*
X142963821Y-74547543D01*
X142963821Y-74547543D02*
X142875305Y-74565657D01*
X142875305Y-74565657D02*
X142797246Y-74544741D01*
X142797246Y-74544741D02*
X142743931Y-74509540D01*
X142743931Y-74509540D02*
X142662045Y-74424851D01*
X142662045Y-74424851D02*
X142619188Y-74350620D01*
X142619188Y-74350620D02*
X142586788Y-74237360D01*
X142586788Y-74237360D02*
X142582961Y-74173587D01*
X142582961Y-74173587D02*
X142603876Y-74095529D01*
X142603876Y-74095529D02*
X142663821Y-74027928D01*
X142663821Y-74027928D02*
X142713309Y-73999357D01*
X142713309Y-73999357D02*
X142801825Y-73981243D01*
X142801825Y-73981243D02*
X142840854Y-73991701D01*
X142985488Y-73842214D02*
X143307155Y-73656499D01*
X143307155Y-73656499D02*
X143248235Y-73954448D01*
X143248235Y-73954448D02*
X143322466Y-73911591D01*
X143322466Y-73911591D02*
X143386239Y-73907763D01*
X143386239Y-73907763D02*
X143425268Y-73918221D01*
X143425268Y-73918221D02*
X143478583Y-73953422D01*
X143478583Y-73953422D02*
X143550012Y-74077140D01*
X143550012Y-74077140D02*
X143553840Y-74140913D01*
X143553840Y-74140913D02*
X143543382Y-74179942D01*
X143543382Y-74179942D02*
X143508180Y-74233258D01*
X143508180Y-74233258D02*
X143359719Y-74318972D01*
X143359719Y-74318972D02*
X143295946Y-74322800D01*
X143295946Y-74322800D02*
X143256917Y-74312342D01*
X143464854Y-77940578D02*
X143579140Y-77940578D01*
X143579140Y-77940578D02*
X143636283Y-77969149D01*
X143636283Y-77969149D02*
X143693426Y-78026292D01*
X143693426Y-78026292D02*
X143721997Y-78140578D01*
X143721997Y-78140578D02*
X143721997Y-78340578D01*
X143721997Y-78340578D02*
X143693426Y-78454864D01*
X143693426Y-78454864D02*
X143636283Y-78512007D01*
X143636283Y-78512007D02*
X143579140Y-78540578D01*
X143579140Y-78540578D02*
X143464854Y-78540578D01*
X143464854Y-78540578D02*
X143407712Y-78512007D01*
X143407712Y-78512007D02*
X143350569Y-78454864D01*
X143350569Y-78454864D02*
X143321997Y-78340578D01*
X143321997Y-78340578D02*
X143321997Y-78140578D01*
X143321997Y-78140578D02*
X143350569Y-78026292D01*
X143350569Y-78026292D02*
X143407712Y-77969149D01*
X143407712Y-77969149D02*
X143464854Y-77940578D01*
X143893425Y-77940578D02*
X144093425Y-78540578D01*
X144093425Y-78540578D02*
X144293425Y-77940578D01*
X144493426Y-78540578D02*
X144493426Y-77940578D01*
X144493426Y-77940578D02*
X144721997Y-77940578D01*
X144721997Y-77940578D02*
X144779140Y-77969149D01*
X144779140Y-77969149D02*
X144807711Y-77997721D01*
X144807711Y-77997721D02*
X144836283Y-78054864D01*
X144836283Y-78054864D02*
X144836283Y-78140578D01*
X144836283Y-78140578D02*
X144807711Y-78197721D01*
X144807711Y-78197721D02*
X144779140Y-78226292D01*
X144779140Y-78226292D02*
X144721997Y-78254864D01*
X144721997Y-78254864D02*
X144493426Y-78254864D01*
D11*
%TO.C,LED11*%
X146263328Y-73026339D02*
X146263328Y-73315900D01*
X147021518Y-74270940D02*
X147867338Y-74270940D01*
D10*
X147444428Y-73148640D02*
X147444428Y-74148640D01*
X147444428Y-73648640D02*
X145944428Y-73648640D01*
X147444428Y-73648640D02*
X148444428Y-74148640D01*
X148444428Y-73148640D02*
X147444428Y-73648640D01*
X148444428Y-73648640D02*
X148444428Y-73148640D01*
X148444428Y-74148640D02*
X148444428Y-73648640D01*
D11*
X148625529Y-73026340D02*
X146263328Y-73026339D01*
X148625528Y-73315900D02*
X148625529Y-73026340D01*
D10*
X149944428Y-73648640D02*
X148444428Y-73648640D01*
D11*
%TO.C,LED10*%
X153772383Y-76095722D02*
X153521617Y-76240502D01*
X153073623Y-77374634D02*
X153496533Y-78107136D01*
D10*
X154257019Y-77179735D02*
X153390993Y-77679735D01*
X153824006Y-77429735D02*
X153074006Y-76130697D01*
X153824006Y-77429735D02*
X153890993Y-78545760D01*
X154757019Y-78045760D02*
X153824006Y-77429735D01*
X154324006Y-78295760D02*
X154757019Y-78045760D01*
X153890993Y-78545760D02*
X154324006Y-78295760D01*
D11*
X154953484Y-78141447D02*
X153772383Y-76095722D01*
X154702717Y-78286228D02*
X154953484Y-78141447D01*
D10*
X155074006Y-79594799D02*
X154324006Y-78295760D01*
D11*
%TO.C,LED9*%
X155049333Y-84242898D02*
X154798566Y-84098118D01*
X153592382Y-84277210D02*
X153169472Y-85009712D01*
D10*
X154352868Y-85204611D02*
X153486842Y-84704611D01*
X153919855Y-84954611D02*
X154669855Y-83655573D01*
X153919855Y-84954611D02*
X152986842Y-85570636D01*
X153852868Y-86070636D02*
X153919855Y-84954611D01*
X153419855Y-85820636D02*
X153852868Y-86070636D01*
X152986842Y-85570636D02*
X153419855Y-85820636D01*
D11*
X153868233Y-86288624D02*
X155049333Y-84242898D01*
X153617466Y-86143844D02*
X153868233Y-86288624D01*
D10*
X152669855Y-87119675D02*
X153419855Y-85820636D01*
D11*
%TO.C,LED8*%
X148475394Y-89508827D02*
X148475394Y-89219266D01*
X147717204Y-88264226D02*
X146871384Y-88264226D01*
D10*
X147294294Y-89386526D02*
X147294294Y-88386526D01*
X147294294Y-88886526D02*
X148794294Y-88886526D01*
X147294294Y-88886526D02*
X146294294Y-88386526D01*
X146294294Y-89386526D02*
X147294294Y-88886526D01*
X146294294Y-88886526D02*
X146294294Y-89386526D01*
X146294294Y-88386526D02*
X146294294Y-88886526D01*
D11*
X146113193Y-89508826D02*
X148475394Y-89508827D01*
X146113194Y-89219266D02*
X146113193Y-89508826D01*
D10*
X144794294Y-88886526D02*
X146294294Y-88886526D01*
%TO.C,LED7*%
X139386085Y-82557228D02*
X140136085Y-83856267D01*
D11*
X139757374Y-83865799D02*
X139506607Y-84010580D01*
X139506607Y-84010580D02*
X140687708Y-86056305D01*
D10*
X140569098Y-83606267D02*
X140136085Y-83856267D01*
X140136085Y-83856267D02*
X139703072Y-84106267D01*
X139703072Y-84106267D02*
X140636085Y-84722292D01*
X140636085Y-84722292D02*
X140569098Y-83606267D01*
X140636085Y-84722292D02*
X141386085Y-86021330D01*
X140203072Y-84972292D02*
X141069098Y-84472292D01*
D11*
X141386468Y-84777393D02*
X140963558Y-84044891D01*
X140687708Y-86056305D02*
X140938474Y-85911525D01*
D10*
%TO.C,LED12*%
X140473524Y-77084012D02*
X141339550Y-77584012D01*
X140906537Y-77334012D02*
X140156537Y-78633050D01*
X141839550Y-76717987D02*
X141406537Y-76467987D01*
X140906537Y-77334012D02*
X141839550Y-76717987D01*
X140973524Y-76217987D02*
X140906537Y-77334012D01*
X141406537Y-76467987D02*
X140973524Y-76217987D01*
X142156537Y-75168948D02*
X141406537Y-76467987D01*
D11*
X139777059Y-78045724D02*
X140027826Y-78190505D01*
X141234010Y-78011413D02*
X141656920Y-77278911D01*
X140958160Y-75999999D02*
X139777059Y-78045724D01*
X141208926Y-76144779D02*
X140958160Y-75999999D01*
%TD*%
M02*
